<svg width="216" height="48" viewBox="0 0 216 48" fill="none" xmlns="http://www.w3.org/2000/svg">
<path d="M69.2962 13.8997V45.2753H62.0475L50.25 26.0562V45.2753H43.1875V13.8997H50.3963L62.2337 33.0256V13.8997H69.2962Z" fill="white"/>
<path d="M94.0897 13.8997L88.2109 23.4493L88.2774 23.5557L88.304 23.5956L89.0356 24.7927L91.0439 27.8518L92.2543 29.6739L102.509 13.8997H94.0897Z" fill="white"/>
<path d="M92.2531 29.7141L88.9945 34.7949V34.7816L88.5024 35.5663L88.1699 36.085L94.0487 45.2756H102.508L92.2531 29.7141Z" fill="white"/>
<path d="M113.134 20.3769H103.957V13.8997H129.427V20.3769H120.29V45.2753H113.134V20.3769Z" fill="white"/>
<path d="M92.252 29.6743V29.7013V29.7148L92.2655 29.6878L92.252 29.6743Z" fill="white"/>
<path d="M88.4224 27.8518L86.4007 24.7927L85.6692 23.5956L85.6426 23.5557L79.6973 13.8997H71.2383L79.684 26.9074L81.4929 29.7005L79.4047 32.8793L71.2782 45.2753H79.7505L81.6791 42.2162L81.9717 41.7507L85.8687 35.566L86.3608 34.7813L86.3741 34.7946L89.6327 29.6872L88.4224 27.8518Z" fill="white"/>
<path d="M145.578 20.1805C144.559 20.1805 143.769 19.9002 143.209 19.3398C142.674 18.7538 142.406 18.0532 142.406 17.238C142.406 17.0342 142.432 16.7922 142.483 16.512C142.559 16.2317 142.648 15.9897 142.75 15.7859C143.081 15.9387 143.565 16.0534 144.202 16.1298C144.865 16.1808 145.629 16.2062 146.495 16.2062C147.794 16.2062 149.259 16.1553 150.89 16.0534C152.546 15.926 154.125 15.7986 155.628 15.6713C157.131 15.5439 158.456 15.4292 159.602 15.3273C160.749 15.2 161.488 15.1363 161.819 15.1363C162.761 15.1363 163.436 15.4929 163.844 16.2062C164.277 16.8941 164.596 17.824 164.799 18.9958C164.137 18.9449 163.475 18.9067 162.812 18.8812C162.175 18.8302 161.628 18.8048 161.169 18.8048C160.354 18.8048 159.526 18.8302 158.685 18.8812C157.87 18.9321 157.042 19.0086 156.201 19.1105C155.845 19.8493 155.45 20.7282 155.017 21.7472C154.584 22.7408 154.151 23.7853 153.717 24.8807C153.31 25.9762 152.915 27.0716 152.533 28.1671C152.151 29.2371 151.82 30.2051 151.539 31.0713C150.979 32.7527 150.482 34.3067 150.049 35.7334C149.641 37.16 149.272 38.4975 148.941 39.7458C148.635 40.9686 148.368 42.1405 148.138 43.2614C147.909 44.3824 147.705 45.4778 147.527 46.5478C145.82 46.293 144.393 45.2231 143.247 43.3379C143.451 42.5481 143.693 41.6947 143.973 40.7776C144.279 39.835 144.623 38.7777 145.005 37.6058C145.412 36.4085 145.884 35.0583 146.419 33.5552C146.954 32.0521 147.565 30.3453 148.253 28.4346C148.508 27.7213 148.775 26.9825 149.055 26.2182C149.336 25.4284 149.603 24.6514 149.858 23.8872C150.138 23.1229 150.38 22.3841 150.584 21.6708C150.813 20.9575 151.004 20.3078 151.157 19.7219C150.087 19.8493 149.068 19.9639 148.1 20.0658C147.157 20.1422 146.317 20.1805 145.578 20.1805Z" fill="#A3E635"/>
<path d="M169.179 27.8996C169.434 27.8996 169.727 27.9505 170.058 28.0524C170.415 28.1289 170.733 28.2435 171.013 28.3964C171.294 28.5237 171.523 28.6639 171.701 28.8167C171.905 28.9696 172.007 29.1097 172.007 29.2371C171.497 30.307 171.026 31.3898 170.593 32.4852C170.16 33.5552 169.79 34.587 169.485 35.5805C169.179 36.5741 168.937 37.5039 168.759 38.3701C168.606 39.2363 168.529 39.9878 168.529 40.6247C168.529 41.338 168.606 41.9367 168.759 42.4207C168.912 42.8793 169.166 43.2105 169.523 43.4143C169.217 43.6181 168.822 43.7837 168.338 43.9111C167.854 44.0385 167.421 44.1021 167.039 44.1021C165.663 44.1021 164.976 43.1595 164.976 41.2743C164.976 39.8222 165.46 37.8351 166.428 35.313C165.918 36.4849 165.332 37.5931 164.67 38.6376C164.007 39.6566 163.332 40.561 162.645 41.3508C161.957 42.1405 161.256 42.7901 160.543 43.2997C159.855 43.7837 159.218 44.0767 158.632 44.1786C157.689 44.1276 156.925 43.6818 156.339 42.8411C155.753 41.9749 155.46 40.8795 155.46 39.5547C155.46 38.1281 155.766 36.625 156.377 35.0455C156.989 33.466 157.766 32.0012 158.709 30.651C159.677 29.3008 160.721 28.1798 161.842 27.2882C162.963 26.371 164.046 25.887 165.09 25.8361C165.345 25.9125 165.625 26.0653 165.931 26.2946C166.262 26.5239 166.568 26.7914 166.848 27.0971C167.154 27.4028 167.408 27.7213 167.612 28.0524C167.816 28.3582 167.931 28.6257 167.956 28.8549C166.937 29.0078 165.88 29.5046 164.784 30.3453C163.714 31.186 162.734 32.205 161.842 33.4023C160.976 34.5742 160.263 35.8353 159.702 37.1855C159.142 38.5357 158.861 39.7967 158.861 40.9686C158.861 41.4527 159.04 41.7584 159.396 41.8858C160.135 41.7329 160.989 41.1087 161.957 40.0133C162.925 38.8924 164.097 37.1728 165.472 34.8545C165.727 34.3959 166.007 33.8864 166.313 33.3259C166.644 32.7655 166.975 32.1795 167.307 31.5681C167.638 30.9567 167.956 30.3453 168.262 29.7338C168.593 29.097 168.899 28.4855 169.179 27.8996Z" fill="#A3E635"/>
<path d="M173.907 40.8922C173.907 39.7713 174.175 38.2045 174.71 36.1919C175.245 34.1539 175.996 31.7846 176.964 29.0842C178.544 24.7788 180.021 21.1995 181.397 18.3462C182.798 15.4674 184.161 13.2256 185.486 11.6206C185.791 11.6716 186.161 11.7989 186.594 12.0028C187.053 12.2066 187.498 12.4358 187.931 12.6906C188.365 12.9199 188.747 13.1619 189.078 13.4167C189.435 13.6714 189.664 13.8752 189.766 14.0281C187.779 16.3718 186.033 18.8939 184.53 21.5944C183.027 24.2948 181.652 27.3901 180.403 30.8803C179.333 33.8864 178.518 36.5995 177.958 39.0197C177.397 41.4145 177.117 43.4143 177.117 45.0193C177.117 45.4524 177.117 45.7198 177.117 45.8218C177.117 45.9237 177.13 46.0256 177.155 46.1275C176.799 46.0765 176.493 45.9873 176.238 45.86C175.983 45.7326 175.818 45.5797 175.741 45.4014C175.69 45.274 175.55 45.083 175.321 44.8282C175.092 44.5989 174.888 44.4206 174.71 44.2932C174.48 44.1404 174.289 43.7455 174.136 43.1086C173.983 42.4462 173.907 41.7074 173.907 40.8922Z" fill="#A3E635"/>
<path d="M183.053 39.7458C183.053 38.8287 183.282 37.5549 183.74 35.9244C184.225 34.294 184.849 32.5107 185.613 30.5745C186.377 28.6384 187.243 26.6385 188.211 24.575C189.18 22.5115 190.148 20.5881 191.116 18.8048C192.109 17.0215 193.052 15.4802 193.944 14.1809C194.861 12.8817 195.638 12.0028 196.275 11.5442C196.631 11.5697 197.013 11.7225 197.421 12.0028C197.854 12.283 198.249 12.6269 198.606 13.0345C198.962 13.4167 199.255 13.8243 199.484 14.2574C199.739 14.6904 199.867 15.0853 199.867 15.442C198.72 16.3591 197.548 17.5437 196.351 18.9958C195.179 20.4225 194.058 22.002 192.988 23.7343C191.918 25.4412 190.925 27.2627 190.008 29.1989C189.116 31.1095 188.364 32.9947 187.753 34.8545C188.568 33.4533 189.422 32.1795 190.313 31.0331C191.205 29.8867 192.097 28.9059 192.988 28.0907C193.88 27.2754 194.746 26.6513 195.587 26.2182C196.453 25.7596 197.268 25.5176 198.032 25.4921C199.153 26.3074 199.714 27.3901 199.714 28.7403C199.714 29.5555 199.548 30.3835 199.217 31.2242C198.886 32.0394 198.44 32.8037 197.88 33.517C197.345 34.2048 196.72 34.8035 196.007 35.313C195.319 35.7971 194.593 36.1155 193.829 36.2684C194.084 37.16 194.402 38.0644 194.784 38.9815C195.192 39.8986 195.663 40.7903 196.198 41.6565C196.759 42.5226 197.383 43.3251 198.071 44.0639C198.784 44.8027 199.586 45.4269 200.478 45.9364C200.351 46.1912 200.16 46.4459 199.905 46.7007C199.65 46.9554 199.344 47.172 198.988 47.3503C198.631 47.5541 198.236 47.707 197.803 47.8089C197.395 47.9362 196.988 47.9999 196.58 47.9999C195.892 47.9999 195.243 47.656 194.631 46.9682C194.045 46.2803 193.51 45.2868 193.026 43.9875C192.644 42.943 192.275 41.6947 191.918 40.2426C191.562 38.7905 191.243 37.2747 190.963 35.6952C191.32 35.4659 191.765 35.1347 192.3 34.7016C192.835 34.243 193.396 33.7208 193.982 33.1348C196.224 30.9694 197.345 29.097 197.345 27.5175C197.345 27.3137 197.204 27.2117 196.924 27.2117C196.415 27.2372 195.816 27.4792 195.128 27.9378C194.44 28.3964 193.701 29.0333 192.912 29.8485C192.147 30.6637 191.358 31.619 190.542 32.7145C189.753 33.81 188.988 34.9946 188.25 36.2684C187.944 36.7779 187.664 37.3638 187.409 38.0262C187.154 38.6886 186.925 39.3764 186.721 40.0897C186.543 40.7776 186.403 41.4654 186.301 42.1533C186.199 42.8411 186.148 43.478 186.148 44.0639C186.148 44.4206 186.186 44.7136 186.263 44.9428C185.473 44.8664 184.989 44.6626 184.81 44.3314C184.607 44.0257 184.428 43.771 184.275 43.5672C184.148 43.3888 184.008 43.236 183.855 43.1086C183.626 42.9303 183.435 42.5481 183.282 41.9622C183.129 41.3762 183.053 40.6374 183.053 39.7458Z" fill="#A3E635"/>
<path d="M215.864 28.1289C215.838 28.6129 215.749 29.1224 215.596 29.6574C215.469 30.1669 215.303 30.6382 215.099 31.0713C214.896 31.4789 214.679 31.8229 214.45 32.1031C214.221 32.3833 214.004 32.5234 213.8 32.5234C213.52 32.498 213.354 32.3069 213.303 31.9502C213.303 31.8738 213.329 31.7592 213.38 31.6063C213.456 31.428 213.533 31.2369 213.609 31.0331C213.686 30.8293 213.749 30.6255 213.8 30.4217C213.877 30.2179 213.915 30.0396 213.915 29.8867C213.915 29.53 213.826 29.2371 213.647 29.0078C213.495 28.753 213.278 28.6257 212.998 28.6257C211.979 28.6257 211.202 29.2625 210.667 30.5363C210.132 31.8101 209.864 33.6826 209.864 36.1537C209.864 36.4085 209.877 36.5613 209.902 36.6123C210.437 36.5868 210.909 36.5741 211.316 36.5741C211.749 36.5486 212.17 36.5359 212.577 36.5359C212.603 36.5868 212.616 36.6887 212.616 36.8416C212.616 37.0708 212.565 37.2364 212.463 37.3383C211.877 37.4657 211.406 37.5804 211.049 37.6823C210.718 37.7587 210.463 37.8351 210.285 37.9115C210.106 37.988 209.992 38.0771 209.941 38.179C209.915 38.2555 209.902 38.3701 209.902 38.523C209.902 38.7268 209.902 38.9306 209.902 39.1344C209.928 39.3382 209.941 39.5929 209.941 39.8987C209.941 42.0386 209.355 43.7582 208.183 45.0575C207.036 46.3567 205.431 47.1083 203.368 47.3121C203.011 47.2866 202.642 47.1847 202.26 47.0064C201.878 46.828 201.508 46.5988 201.152 46.3185C200.82 46.0383 200.527 45.7198 200.273 45.3632C200.018 45.032 199.84 44.6881 199.738 44.3314C199.738 43.3633 199.941 42.4462 200.349 41.58C200.757 40.6884 201.304 39.9114 201.992 39.249C202.706 38.5612 203.534 38.0134 204.476 37.6058C205.444 37.1728 206.489 36.918 207.61 36.8416C207.61 36.2047 207.546 35.5805 207.419 34.9691C207.291 34.3577 207.151 33.7717 206.998 33.2113C206.871 32.6253 206.743 32.0649 206.616 31.5299C206.489 30.9694 206.425 30.4217 206.425 29.8867C206.425 29.1989 206.565 28.5237 206.845 27.8614C207.126 27.1735 207.495 26.5494 207.954 25.9889C208.412 25.403 208.947 24.9062 209.559 24.4986C210.17 24.091 210.807 23.8107 211.469 23.6579C211.749 23.7343 212.119 23.9636 212.577 24.3457C213.061 24.7024 213.533 25.11 213.991 25.5686C214.45 26.0271 214.857 26.4984 215.214 26.9825C215.571 27.441 215.787 27.8232 215.864 28.1289ZM203.253 45.5543C203.865 45.2995 204.438 44.9301 204.973 44.4461C205.533 43.962 206.017 43.4143 206.425 42.8029C206.833 42.1915 207.151 41.5418 207.38 40.854C207.635 40.1661 207.762 39.491 207.762 38.8287C207.253 38.9051 206.692 39.1471 206.081 39.5547C205.47 39.9369 204.896 40.4082 204.361 40.9686C203.826 41.5036 203.381 42.0641 203.024 42.65C202.667 43.236 202.489 43.7455 202.489 44.1786C202.489 44.739 202.744 45.1976 203.253 45.5543Z" fill="#A3E635"/>
<path fill-rule="evenodd" clip-rule="evenodd" d="M12.0563 19.6061L12.6181 20.7446L12.6197 20.7445C12.8125 21.1353 13.2871 21.295 13.6761 21.0991C17.2961 19.2755 23.0529 17.0966 25.7013 18.1784C25.9121 18.2649 26.0799 18.437 26.1555 18.6521C26.9932 21.0369 25.8235 22.2528 23.72 24.054C23.2173 24.4842 22.5215 24.941 21.7068 25.3961L23.1464 29.647C23.3473 30.2419 22.9865 30.8812 22.3726 31.0141L21.0481 31.3021V33.6423H22.4927V39.0817C25.5714 39.2832 27.7076 39.7202 27.7206 40.2274H27.7224V44.2669H27.716C27.5609 44.9487 23.5682 45.4947 18.6654 45.4947C13.7626 45.4947 9.7698 44.9487 9.61471 44.2669H9.6117V44.2503C9.61059 44.2422 9.61003 44.234 9.61003 44.2258C9.61003 44.2175 9.61059 44.2093 9.6117 44.2012V40.2567C9.61059 40.2485 9.61003 40.2403 9.61003 40.2321C9.61003 39.7118 11.8444 39.2646 15.0418 39.0688V33.704H16.219V32.3523L16.159 32.3654C15.7144 32.4619 15.2572 32.2625 15.0277 31.8701L13.1478 28.6729C12.4858 28.8155 11.8858 28.9058 11.382 28.9307C8.26021 29.0865 6.86393 26.2324 6.86393 26.2324L1.58699 15.7567C1.58699 15.7567 0.081083 12.5661 0.00460688 10.1128C-0.0677152 7.76234 0.665092 4.75646 5.52393 2.21955C14.5644 -2.50085 16.8344 1.70286 17.089 2.17427L17.1023 2.1987C17.1132 2.21852 17.1256 2.23665 17.138 2.25479L17.138 2.25481L17.138 2.25485L17.1416 2.26014L17.1451 2.26544C17.4763 2.74946 17.1798 3.41938 16.5977 3.48782C15.2637 3.64475 13.7619 4.02779 12.0967 4.63502C9.9089 5.43179 7.92668 6.44233 6.7342 7.09361C6.36632 7.2959 6.22274 7.75188 6.40823 8.12889L6.97024 9.27062C7.16711 9.67378 7.6604 9.82898 8.05264 9.61226C11.3841 7.76796 16.9796 5.44029 19.596 6.54031C19.753 6.60685 19.8804 6.72468 19.9655 6.87248L19.9963 6.92704L19.9968 6.92777L19.9981 6.93013C20.1961 7.28023 20.3957 7.63307 20.5955 7.98875C20.87 8.47997 20.5539 9.09735 19.9948 9.15306C18.5361 9.29666 16.8702 9.69298 15.0034 10.3416C12.8177 11.1017 10.8134 12.0472 9.51978 12.7041C9.13702 12.8979 8.98307 13.3641 9.17239 13.7504L9.73429 14.8905C9.92733 15.2845 10.405 15.4424 10.7953 15.2432C14.2664 13.4667 19.719 11.338 22.5268 12.0738C22.7418 12.1299 22.9263 12.2706 23.0308 12.4678C23.3037 12.9813 23.5625 13.4737 23.8031 13.934C24.0676 14.4402 23.7188 15.044 23.1488 15.0815C21.6141 15.1813 19.8385 15.5744 17.8283 16.2601C15.6742 16.9958 13.6964 17.9124 12.4084 18.5578C12.0223 18.7503 11.8653 19.2183 12.0563 19.6061Z" fill="#A3E635"/>
</svg>
